<?xml version="1.0" encoding="UTF-8"?>
<svg id="Ebene_1" data-name="Ebene 1" xmlns="http://www.w3.org/2000/svg" viewBox="0 0 628.12 313.35">
  <defs>
    <style>
      .cls-1, .cls-2 {
        fill: #fff;
      }

      .cls-2 {
        stroke: #fff;
        stroke-miterlimit: 10;
        stroke-width: 6px;
      }
    </style>
  </defs>
  <g>
    <path class="cls-2" d="M143.42,123.13v62.24h-29.6v-115.2h39.2l26.4,76.16,28.32-76.16h39.2v115.2h-30.4v-62.4l-24.48,62.4h-25.6l-23.04-62.24Z"/>
    <path class="cls-2" d="M313.82,67.93c33.76,0,58.56,23.84,58.56,60s-23.68,59.68-58.24,59.68-58.4-24.16-58.4-59.68,24.48-60,58.08-60ZM339.58,130.01c0-17.12-11.04-27.68-25.76-27.68s-25.28,10.56-25.28,27.68,10.24,27.2,25.44,27.2,25.6-10.88,25.6-27.2Z"/>
    <path class="cls-2" d="M410.78,123.13v62.24h-29.6v-115.2h39.2l26.4,76.16,28.32-76.16h39.2v115.2h-30.4v-62.4l-24.48,62.4h-25.6l-23.04-62.24Z"/>
  </g>
  <g>
    <path class="cls-1" d="M150.48,222.23l5.3-11.57h4.22v17.45h-3.38v-14.21l-5.83,12.72h-1.85l-5.88-12.72v14.21h-2.35v-17.45h4.44l5.33,11.57Z"/>
    <path class="cls-1" d="M176.42,228.38c-5.35,0-8.3-3.84-8.3-8.98s2.95-8.98,8.3-8.98,8.3,3.82,8.3,8.98-2.98,8.98-8.3,8.98ZM176.42,226.34c3.5,0,4.73-3.5,4.73-6.94s-1.22-6.94-4.73-6.94-4.73,3.48-4.73,6.94,1.22,6.94,4.73,6.94Z"/>
    <path class="cls-1" d="M192.81,210.67h7.15c3.43,0,6.14,1.92,6.14,5.3,0,2.23-1.3,3.89-3.02,4.73l3.74,7.42h-3.84l-3.17-6.58c-.41,0-.84.02-1.27.02h-2.35v6.55h-3.38v-17.45ZM196.2,212.63v6.96h2.98c2.16,0,3.55-1.32,3.55-3.62,0-2.18-1.39-3.34-3.46-3.34h-3.07Z"/>
    <path class="cls-1" d="M214.53,210.67h11.79v1.97h-8.4v5.62h7.66v1.97h-7.66v5.93h8.57v1.97h-11.95v-17.45Z"/>
    <path class="cls-1" d="M244.68,210.67h13.78v1.97h-5.21v15.48h-3.38v-15.48h-5.18v-1.97Z"/>
    <path class="cls-1" d="M277.49,220.48h-7.99v7.63h-3.38v-17.45h3.38v7.85h7.99v-7.85h3.38v17.45h-3.38v-7.63Z"/>
    <path class="cls-1" d="M294.43,210.67h4.15l6.26,17.45h-3.72l-1.61-4.61h-7.51l-1.68,4.61h-2.18l6.29-17.45ZM298.85,221.56l-3.02-8.67-3.12,8.67h6.14Z"/>
    <path class="cls-1" d="M327.65,228.11h-4.01l-8.3-14.54.17,14.54h-3.38v-17.45h4.01l8.3,14.52-.17-14.52h3.38v17.45Z"/>
    <path class="cls-1" d="M356.23,228.11h-7.39v-17.45h7.18c3.19,0,5.54,1.42,5.52,4.27,0,1.97-1.22,3.38-3.19,4.06,2.18.43,3.74,1.87,3.74,4.22,0,3.36-2.64,4.9-5.86,4.9ZM352.17,218.15h3.07c1.87,0,3.02-1.03,3.02-2.78s-1.06-2.74-2.86-2.74h-3.24v5.52ZM355.34,226.15c2.02,0,3.48-.89,3.48-3.02,0-1.97-1.42-3-3.43-3h-3.22v6.03h3.17Z"/>
    <path class="cls-1" d="M370.32,210.67h11.79v1.97h-8.4v5.62h7.66v1.97h-7.66v5.93h8.57v1.97h-11.95v-17.45Z"/>
    <path class="cls-1" d="M394.63,210.67h4.15l6.26,17.45h-3.72l-1.61-4.61h-7.51l-1.68,4.61h-2.18l6.29-17.45ZM399.05,221.56l-3.02-8.67-3.12,8.67h6.14Z"/>
    <path class="cls-1" d="M408.64,210.67h13.78v1.97h-5.21v15.48h-3.38v-15.48h-5.18v-1.97Z"/>
    <path class="cls-1" d="M437.47,228.11h-7.39v-17.45h7.18c3.19,0,5.54,1.42,5.52,4.27,0,1.97-1.22,3.38-3.19,4.06,2.18.43,3.74,1.87,3.74,4.22,0,3.36-2.64,4.9-5.86,4.9ZM433.41,218.15h3.07c1.87,0,3.02-1.03,3.02-2.78s-1.06-2.74-2.86-2.74h-3.24v5.52ZM436.58,226.15c2.02,0,3.48-.89,3.48-3.02,0-1.97-1.42-3-3.43-3h-3.22v6.03h3.17Z"/>
    <path class="cls-1" d="M458.52,228.38c-5.35,0-8.3-3.84-8.3-8.98s2.95-8.98,8.3-8.98,8.3,3.82,8.3,8.98-2.98,8.98-8.3,8.98ZM458.52,226.34c3.5,0,4.73-3.5,4.73-6.94s-1.22-6.94-4.73-6.94-4.73,3.48-4.73,6.94,1.22,6.94,4.73,6.94Z"/>
    <path class="cls-1" d="M480.19,221.27l-4.94,6.84h-2.52l6.24-8.67-6-8.78h4.22l4.37,6.38,4.58-6.38h2.52l-5.88,8.21,6.31,9.24h-4.22l-4.68-6.84Z"/>
  </g>
</svg>